<?xml version="1.0" encoding="utf-8"?>
<!-- Generator: Adobe Illustrator 26.2.1, SVG Export Plug-In . SVG Version: 6.00 Build 0)  -->
<svg version="1.1" id="Layer_1" xmlns="http://www.w3.org/2000/svg" xmlns:xlink="http://www.w3.org/1999/xlink" x="0px" y="0px"
	 viewBox="0 0 700 500" style="enable-background:new 0 0 700 500;" xml:space="preserve">
<style type="text/css">
	.st0{fill:#CCCCCC;}
	.st1{fill:#FFFFFF;}
	.st2{fill:#B6B6B6;}
	.st3{fill:none;stroke:#000000;stroke-width:17;stroke-miterlimit:10;}
	.st4{fill:#010002;}
</style>
<g>
	<g transform="translate(1 1)">
		<path class="st0" d="M479.9,211.6l23.2-12.6c0,0,0,0,0.4,0l11.4-6.3c4.7-2.4,7.5-7.5,7.5-12.6v-14.6c0,0-4.3-5.1-8.3-13l0,0l0,0
			c-0.4-1.2-1.2-2.4-1.6-3.2c0,0,0-0.4-0.4-0.4c-0.4-1.2-1.2-2.4-1.6-3.5c0,0,0,0,0-0.4c-0.4-1.2-0.8-2.4-1.2-3.5
			c0-0.4-0.4-0.8-0.4-1.2c-0.4-1.2-0.8-2.8-1.2-3.9c-2.8-2.4-5.1-5.9-5.1-10.2v-15.8c0-3.5,1.6-6.7,3.9-8.7V79.2
			c-5.5-4.3-14.2-8.3-27.6-8.3c-37.8,0-39.4,31.5-39.4,31.5v19.7c-2,2-3.9,4.7-3.9,7.5v13.8c0,3.5,2,6.7,4.7,8.7
			c3.5,14.6,15,25.2,15,25.2v12.6c0,4.7-2.4,8.7-6.3,11l-26.4,16.5c-9.1,4.3-14.6,13.8-14.6,23.6v11h55.2v-12.6
			C463.4,227.7,469.7,217.1,479.9,211.6"/>
		<path class="st1" d="M479.9,211.6l23.2-12.6c0,0,0,0,0.4,0l11.4-6.3c4.7-2.4,7.5-7.5,7.5-12.6v-14.6c0,0-4.3-5.1-8.3-13l0,0l0,0
			c-0.4-1.2-1.2-2.4-1.6-3.2c0,0,0-0.4-0.4-0.4c-0.4-1.2-1.2-2.4-1.6-3.5c0,0,0,0,0-0.4c-0.4-1.2-0.8-2.4-1.2-3.5
			c0-0.4-0.4-0.8-0.4-1.2c-0.4-1.2-0.8-2.8-1.2-3.9c-2.8-2.4-5.1-5.9-5.1-10.2v-15.8c0-3.5,1.6-6.7,3.9-8.7V79.2
			c-5.5-4.3-14.2-8.3-27.6-8.3c-37.8,0-39.4,31.5-39.4,31.5v19.7c-2,2-3.9,4.7-3.9,7.5v13.8c0,3.5,2,6.7,4.7,8.7
			c3.5,14.6,15,25.2,15,25.2v12.6c0,4.7-2.4,8.7-6.3,11l-26.4,16.5c-9.1,4.3-14.6,13.8-14.6,23.6v11h55.2v-12.6
			C463.4,227.7,469.7,217.1,479.9,211.6"/>
		<path d="M636.7,256.1H463.4c-2.4,0-3.9-1.6-3.9-3.9v-12.6c0-13,7.1-24.8,18.5-31.1l35.1-19.3c3.5-2,5.5-5.5,5.5-9.1v-13
			c-2.8-3.5-10.2-14.2-13.8-28.4c-3.5-3.2-5.9-7.9-5.9-12.6v-15.8c0-3.9,1.6-7.5,3.9-10.2V79.2c-0.4-2-1.2-15,8.3-25.6
			c7.9-9.5,21.3-14.2,39-14.2c17.7,0,31.1,4.7,39,13.8c9.5,10.6,8.3,23.6,8.3,25.6v20.9c2.4,2.8,3.9,6.7,3.9,10.2v15.8
			c0,6.3-3.5,11.8-9.1,14.2c-2.8,8.3-6.7,15.8-11.8,22.9c-0.8,1.6-2,2.8-2.8,3.9V180c0,3.9,2.4,7.5,5.9,9.5l37.8,18.9
			c12.2,5.9,19.7,18.1,19.7,31.9v11.8C640.6,254.5,639.1,256.1,636.7,256.1z M467.3,248.2h165.5v-7.9c0-10.6-5.9-20.1-15.4-24.8l0,0
			l-37.8-18.9c-5.9-3.2-9.8-9.5-9.8-16.5v-14.6c0-0.8,0.4-2,0.8-2.8c0.8-1.2,2-2.8,3.2-4.3c4.7-6.7,8.7-14.2,11-22.5
			c0.4-1.2,1.2-2.4,2.8-2.4c3.5-1.2,5.5-3.9,5.5-7.5v-15.8c0-2.4-0.8-4.3-2.8-5.9c-0.8-0.8-1.2-2-1.2-2.8V78.8v-0.4
			c0,0,1.2-11-6.3-19.7c-6.3-7.5-17.3-11.4-32.7-11.4s-26.4,3.9-33.1,11c-7.5,8.7-6.3,19.7-6.3,19.7v0.4v22.9c0,1.2-0.4,2.4-1.2,2.8
			c-2,2-2.8,3.9-2.8,6.3v15.8c0,2.8,1.2,5.1,3.5,6.7c0.8,0.4,1.6,1.6,1.6,2.4c3.5,16.2,13.4,27.6,13.4,28c0.4,0.8,0.8,1.6,0.8,2.4
			V180c0,6.7-3.5,13-9.5,16.2l-35.1,19.3c-9.1,4.7-14.6,14.2-14.6,24.4v8.3L467.3,248.2L467.3,248.2z"/>
		<path id="SVGCleanerId_0" class="st2" d="M463.4,256.1h-55.2c-2.4,0-3.9-1.6-3.9-3.9v-11c0-11.4,6.3-22.1,16.2-27.6l26.4-16.5
			c2.8-1.6,4.7-4.3,4.7-7.5v-10.6c-3.2-3.2-11-12.6-14.2-24.8c-3.5-2.8-5.5-6.7-5.5-10.6v-13.8c0-3.2,1.6-6.3,3.9-9.1v-18.1
			c0-0.4,2.4-35.5,43.3-35.5c11.8,0,22.1,3.2,29.9,9.1c1.2,0.8,1.6,2,1.6,3.2v22.1c0,1.2-0.4,2.4-1.2,2.8c-2,2-2.8,3.9-2.8,6.3v15.8
			c0,2.8,1.2,5.1,3.5,6.7c0.8,0.4,1.6,1.6,1.6,2.4c0.4,1.2,0.8,2.8,1.2,3.9l0.4,0.8c0.4,1.2,0.8,2.4,1.2,3.2
			c0.4,1.6,1.2,2.8,1.6,3.9l-3.5,2l3.5-1.6c0.4,1.2,1.2,2,1.6,3.2c3.9,7.5,7.9,12.2,7.9,12.2c0.4,0.8,0.8,1.6,0.8,2.4v14.6
			c0,6.7-3.5,13-9.5,16.2l-11.4,6.3l0,0l0,0l-23.2,12.6c-9.1,4.7-14.6,14.2-14.6,24.4v13C467.3,254.5,465.7,256.1,463.4,256.1z
			 M412.1,248.2h47.3v-8.7c0-13,7.1-24.8,18.5-31.1l0,0l22.9-12.6c0.4-0.4,0.8-0.4,1.2-0.8l11-5.9c3.5-2,5.5-5.5,5.5-9.1v-13
			c-1.6-2-4.7-6.3-7.9-12.6c-0.4-1.2-1.2-2.4-1.6-3.5l-0.4-0.4c-0.4-1.2-1.2-2.4-1.6-3.9c-0.4-1.6-0.8-2.8-1.2-3.9l-0.4-1.2
			c-0.4-0.8-0.4-2-0.8-2.8c-3.5-3.2-5.9-7.9-5.9-12.6v-15.8c0-3.9,1.6-7.5,3.9-10.2V81.2c-6.3-3.9-14.2-6.3-23.6-6.3
			c-33.5,0-35.5,26.8-35.5,28v19.3c0,1.2-0.4,2.4-1.2,2.8c-2,1.6-2.8,3.2-2.8,4.7v13.8c0,2,1.2,3.9,2.8,5.1c0.8,0.4,1.6,1.6,1.6,2.4
			c3.2,13.4,13.4,23.2,13.8,23.6c0.8,0.8,1.2,2,1.2,2.8v12.6c0,5.9-3.2,11.4-8.7,14.2l-26,16.5c-7.5,3.9-12.2,11.8-12.2,20.5
			L412.1,248.2L412.1,248.2z"/>
		<g>
			<path id="SVGCleanerId_0_1_" d="M463.4,256.1h-55.2c-2.4,0-3.9-1.6-3.9-3.9v-11c0-11.4,6.3-22.1,16.2-27.6l26.4-16.5
				c2.8-1.6,4.7-4.3,4.7-7.5v-10.6c-3.2-3.2-11-12.6-14.2-24.8c-3.5-2.8-5.5-6.7-5.5-10.6v-13.8c0-3.2,1.6-6.3,3.9-9.1v-18.1
				c0-0.4,2.4-35.5,43.3-35.5c11.8,0,22.1,3.2,29.9,9.1c1.2,0.8,1.6,2,1.6,3.2v22.1c0,1.2-0.4,2.4-1.2,2.8c-2,2-2.8,3.9-2.8,6.3
				v15.8c0,2.8,1.2,5.1,3.5,6.7c0.8,0.4,1.6,1.6,1.6,2.4c0.4,1.2,0.8,2.8,1.2,3.9l0.4,0.8c0.4,1.2,0.8,2.4,1.2,3.2
				c0.4,1.6,1.2,2.8,1.6,3.9l-3.5,2l3.5-1.6c0.4,1.2,1.2,2,1.6,3.2c3.9,7.5,7.9,12.2,7.9,12.2c0.4,0.8,0.8,1.6,0.8,2.4v14.6
				c0,6.7-3.5,13-9.5,16.2l-11.4,6.3l0,0l0,0l-23.2,12.6c-9.1,4.7-14.6,14.2-14.6,24.4v13C467.3,254.5,465.7,256.1,463.4,256.1z
				 M412.1,248.2h47.3v-8.7c0-13,7.1-24.8,18.5-31.1l0,0l22.9-12.6c0.4-0.4,0.8-0.4,1.2-0.8l11-5.9c3.5-2,5.5-5.5,5.5-9.1v-13
				c-1.6-2-4.7-6.3-7.9-12.6c-0.4-1.2-1.2-2.4-1.6-3.5l-0.4-0.4c-0.4-1.2-1.2-2.4-1.6-3.9c-0.4-1.6-0.8-2.8-1.2-3.9l-0.4-1.2
				c-0.4-0.8-0.4-2-0.8-2.8c-3.5-3.2-5.9-7.9-5.9-12.6v-15.8c0-3.9,1.6-7.5,3.9-10.2V81.2c-6.3-3.9-14.2-6.3-23.6-6.3
				c-33.5,0-35.5,26.8-35.5,28v19.3c0,1.2-0.4,2.4-1.2,2.8c-2,1.6-2.8,3.2-2.8,4.7v13.8c0,2,1.2,3.9,2.8,5.1
				c0.8,0.4,1.6,1.6,1.6,2.4c3.2,13.4,13.4,23.2,13.8,23.6c0.8,0.8,1.2,2,1.2,2.8v12.6c0,5.9-3.2,11.4-8.7,14.2l-26,16.5
				c-7.5,3.9-12.2,11.8-12.2,20.5L412.1,248.2L412.1,248.2z"/>
		</g>
	</g>
	<path class="st3" d="M680.3,253.7H359c-4.6,0-8.3-3.7-8.3-8.3V17.3c0-4.6,3.7-8.3,8.3-8.3h321.3c4.6,0,8.3,3.7,8.3,8.3v228.1
		C688.7,250,684.9,253.7,680.3,253.7z"/>
	<g>
		<g>
			<g>
				<path class="st4" d="M330.4,114l-0.6,5.8c-24.6,0-42.3,6.4-52.5,19.1c-11.6,14.4-10.3,33-9.4,39.5h42.8l-65.2,65.2l-65.2-65.2
					h41.1c5.2-57.7,55-66.4,84.6-66.4C319.9,112,330,113.9,330.4,114z M245.4,235.3l51-51H263l-0.5-2.3c-0.2-1.1-5.7-26.9,10.2-46.7
					c6.4-8,15.3-13.8,26.6-17.3c-32.7,1.4-69.2,14.3-72.3,63.5l-0.2,2.8h-32.4L245.4,235.3z"/>
			</g>
		</g>
	</g>
</g>
<g>
	<g>
		<path d="M366.9,301.9h-47.1v-42.5c0-5.6-3.7-10.1-8.3-10.1H198.8l-19.9-51.6c-1.4-3.6-4.3-5.8-7.5-5.8H31.3
			c-4.6,0-8.3,4.5-8.3,10.1v287c0,5.5,3.7,10.1,8.3,10.1c0,0,0,0,0,0h280.2c3.4,0,6.5-2.6,7.8-6.5l55.4-176.9
			C376.7,309,372.7,301.9,366.9,301.9z M39.6,212h126.5l19.9,51.6c1.4,3.6,4.3,5.8,7.5,5.8h109.6v32.4H86.7c-3.4,0-6.5,2.6-7.8,6.5
			L39.6,433.9V212z M305.7,478.7H43.3l49.1-156.6c12,0,250.4,0,262.4,0L305.7,478.7z"/>
	</g>
</g>
</svg>
