<?xml version="1.0" encoding="utf-8"?>
<!-- Generator: Adobe Illustrator 26.2.1, SVG Export Plug-In . SVG Version: 6.00 Build 0)  -->
<svg version="1.1" id="Layer_1" xmlns="http://www.w3.org/2000/svg" xmlns:xlink="http://www.w3.org/1999/xlink" x="0px" y="0px"
	 viewBox="0 0 880 160" style="enable-background:new 0 0 880 160;" xml:space="preserve">
<style type="text/css">
	.st0{fill:url(#SVGID_1_);stroke:#FFFFFF;stroke-width:2;stroke-miterlimit:10;}
	.st1{fill:#FFFFFF;}
	.st2{fill:url(#SVGID_00000016759830658502613190000006065138230089926558_);stroke:#FFFFFF;stroke-width:2;stroke-miterlimit:10;}
	.st3{fill:url(#SVGID_00000013878345838466779360000001209080456762378935_);stroke:#FFFFFF;stroke-width:2;stroke-miterlimit:10;}
	.st4{fill:none;stroke:#FFFFFF;stroke-width:0.5;stroke-miterlimit:10;}
	.st5{fill:none;stroke:#FFFFFF;stroke-width:0.5;stroke-miterlimit:10;stroke-dasharray:1.5683,1.2546;}
	.st6{fill:none;stroke:#FFFFFF;stroke-width:0.5;stroke-miterlimit:10;stroke-dasharray:1.4264,1.1411;}
	.st7{fill-rule:evenodd;clip-rule:evenodd;fill:url(#SVGID_00000155120842566546010720000010820156652344759742_);}
	.st8{fill-rule:evenodd;clip-rule:evenodd;fill:url(#SVGID_00000075867642989642371550000002992084975221547185_);}
	.st9{fill-rule:evenodd;clip-rule:evenodd;fill:url(#SVGID_00000164480046017083026530000009496356180996800386_);}
	.st10{fill-rule:evenodd;clip-rule:evenodd;fill:#F7B62D;}
</style>
<linearGradient id="SVGID_1_" gradientUnits="userSpaceOnUse" x1="466.9688" y1="79.5634" x2="655" y2="79.5634">
	<stop  offset="0" style="stop-color:#910882"/>
	<stop  offset="1" style="stop-color:#1D2087"/>
</linearGradient>
<polygon class="st0" points="481.1,104 467,79.6 481.1,55.2 640.9,55.2 655,79.6 640.9,104 "/>
<g>
	<path class="st1" d="M543.1,76.1c1,0.4,2.4,1.1,3,1.6l-0.9,1.3c-0.6-0.6-1.9-1.3-3-1.7L543.1,76.1z M542.7,85.5
		c0.8-1.3,2-3.4,2.8-5.3l1.2,1c-0.8,1.7-1.8,3.6-2.5,4.9c0.1,0.1,0.1,0.2,0.1,0.3c0,0.1,0,0.2-0.1,0.2L542.7,85.5z M544,71.7
		c1,0.4,2.3,1.1,3,1.7l-0.9,1.2c-0.6-0.6-1.9-1.4-2.9-1.8L544,71.7z M557.4,80.6h-4.3c0.8,2.2,2.3,4,4.4,4.8
		c-0.4,0.3-0.8,0.9-1.1,1.3c-2.3-1.1-3.8-3-4.7-5.6c-0.5,2.2-1.7,4.2-4.6,5.7c-0.3-0.3-0.9-0.9-1.2-1.1c2.7-1.4,3.9-3.2,4.4-5.1
		h-3.6v-1.4h3.8c0.1-0.6,0.1-1.3,0.1-1.9v-1.5h-2.9v-1.5h2.9v-2.6l1.9,0.1c0,0.1-0.1,0.2-0.4,0.3v2.3h3.9v4.9h1.4V80.6z M552.2,75.7
		v1.5c0,0.6,0,1.3-0.1,1.9h2.4v-3.5H552.2z"/>
	<path class="st1" d="M574.7,78.5h-1.6c0.6,0.9,1.2,1.6,2,2.1c-0.3,0.3-0.8,0.8-1,1.2c-0.3-0.2-0.5-0.4-0.7-0.6c0,0.1,0,0.2,0,0.3
		c-0.2,3.1-0.3,4.3-0.7,4.7c-0.4,0.4-0.8,0.5-1.8,0.5c-0.3,0-0.6,0-0.9,0c0-0.4-0.2-0.9-0.3-1.3c0.6,0.1,1.1,0.1,1.4,0.1
		c0.2,0,0.4,0,0.5-0.2c0.2-0.2,0.3-1.1,0.5-3.1h-2c-0.4,2-1.4,3.6-3.8,4.6c-0.2-0.4-0.6-0.9-0.9-1.2c1.9-0.7,2.8-1.9,3.2-3.4h-2
		v-1.1c-0.3,0.3-0.6,0.5-0.9,0.7c-0.1-0.2-0.4-0.6-0.6-0.9V85c0,1.5-0.7,1.7-2.6,1.6c0-0.4-0.2-1-0.4-1.4c0.6,0,1.2,0,1.4,0
		c0.2,0,0.3-0.1,0.3-0.3v-3.8h-1.7c-0.1,1.9-0.4,3.9-1.1,5.4c-0.3-0.2-0.9-0.5-1.2-0.7c1-2.3,1-5.6,1-8v-5.9h4.3v8.4
		c0.8-0.5,1.4-1.2,2-2.1h-1.6v-1.3h2.3c0.2-0.5,0.4-1,0.5-1.5h-2.4v-1.2h2.8c0.2-0.9,0.3-1.9,0.5-2.9l1.7,0.2c0,0.1-0.1,0.2-0.4,0.2
		c-0.1,0.8-0.2,1.6-0.4,2.4h1.7l-0.2-0.1c0.4-0.7,0.9-1.8,1.1-2.6l1.7,0.6c0,0.1-0.2,0.2-0.4,0.2c-0.3,0.6-0.7,1.3-1.1,2h1.9v1.2
		h-2.6c0.1,0.5,0.3,1,0.5,1.5h2.3V78.5z M561.9,78c0,0.6,0,1.1,0,1.8h1.7v-2.5h-1.6V78z M563.5,73.6h-1.6v2.4h1.6V73.6z M567,71.8
		c0.4,0.6,0.8,1.5,0.9,2l-1.2,0.5c-0.1-0.6-0.5-1.4-0.8-2.1L567,71.8z M572.6,80.9l0.6,0.1c-0.6-0.7-1.2-1.5-1.6-2.5h-3.1
		c-0.5,0.9-1.1,1.7-1.8,2.4h2c0.1-0.5,0.1-1.1,0.1-1.6l1.7,0.1c0,0.1-0.1,0.2-0.4,0.3c0,0.4-0.1,0.8-0.1,1.2h2.2L572.6,80.9z
		 M571.1,77.2c-0.2-0.5-0.3-1-0.5-1.5h-1.1c-0.1,0.5-0.3,1-0.5,1.5H571.1z"/>
	<path class="st1" d="M585.6,84h-3.5v2.8h-1.5V84H577v-1.4h3.6v-1.2h-2.9v-5.9h7.5v5.9h-3.1v1.2h3.5V84z M578.3,72
		c0.5,0.8,1,1.9,1.2,2.7l-1.3,0.5c-0.1-0.7-0.6-1.9-1.1-2.7L578.3,72z M579,76.6v1.2h1.7v-1.2H579z M579,79v1.2h1.7V79H579z
		 M581.3,71.6c0.4,0.9,0.7,2,0.8,2.7l-1.4,0.4c-0.1-0.7-0.4-1.9-0.7-2.8L581.3,71.6z M583.8,77.8v-1.2H582v1.2H583.8z M583.8,80.2
		V79H582v1.2H583.8z M586,72.3c-0.1,0.1-0.2,0.2-0.4,0.2c-0.4,0.9-1.1,2.1-1.6,2.9c0,0-1.2-0.5-1.2-0.5c0.5-0.9,1.1-2.2,1.5-3.2
		L586,72.3z M588.5,77.5c0.1,1.3,0.3,2.4,0.5,3.5c0.6-0.9,1-2,1.4-3l1.7,0.5c0,0.1-0.2,0.2-0.4,0.2c-0.6,1.6-1.4,3-2.3,4.3
		c0.4,1.4,0.9,2.3,1.4,2.3c0.3,0,0.5-0.9,0.6-2.7c0.3,0.3,0.8,0.7,1.1,0.9c-0.2,2.7-0.7,3.4-1.9,3.4c-1,0-1.8-1-2.3-2.5
		c-0.9,0.9-1.8,1.7-2.9,2.3c-0.2-0.3-0.7-0.8-1-1.1c1.2-0.7,2.4-1.7,3.3-2.8c-0.4-1.4-0.6-3.2-0.8-5l-1.5,0.2l-0.2-1.4l1.6-0.2
		c-0.1-1.5-0.1-3.1-0.2-4.6l1.9,0.1c0,0.2-0.1,0.2-0.4,0.3c0,1.3,0,2.7,0.1,4.1l3.7-0.5l0.2,1.4L588.5,77.5z M590.2,71.8
		c0.7,0.8,1.5,2,1.8,2.7l-1.2,0.7c-0.3-0.8-1-2-1.7-2.8L590.2,71.8z"/>
</g>
<linearGradient id="SVGID_00000065775253744299520210000006842468048987204020_" gradientUnits="userSpaceOnUse" x1="185.0075" y1="79.5634" x2="489.6379" y2="79.5634">
	<stop  offset="0" style="stop-color:#E95230"/>
	<stop  offset="1" style="stop-color:#930000"/>
</linearGradient>
<polygon style="fill:url(#SVGID_00000065775253744299520210000006842468048987204020_);stroke:#FFFFFF;stroke-width:2;stroke-miterlimit:10;" points="
	167.3,104 153.2,79.6 167.3,55.2 484.1,55.2 498.2,79.6 484.1,104 "/>
<g>
	<path class="st1" d="M234.7,73.5v11.8h-3.3v-7.7c-0.5,0.4-1,0.7-1.5,1c-0.5,0.2-1.1,0.5-1.9,0.7v-2.6c1.1-0.4,1.9-0.8,2.5-1.3
		c0.6-0.5,1.1-1.1,1.4-1.8H234.7z"/>
	<path class="st1" d="M242.1,72.5h13.6v14.1H254v-1.1h-10.4v1.1h-1.5V72.5z M243.6,84H254v-10h-10.4V84z M245.7,76.2h6.2v5.5h-6.2
		V76.2z M250.5,80.5v-3h-3.4v3H250.5z"/>
	<path class="st1" d="M269.3,84h-3.5v2.8h-1.5V84h-3.6v-1.4h3.6v-1.2h-2.9v-5.9h7.5v5.9h-3.1v1.2h3.5V84z M261.9,72
		c0.5,0.8,1,1.9,1.2,2.7l-1.3,0.5c-0.1-0.7-0.6-1.9-1.1-2.7L261.9,72z M262.6,76.6v1.2h1.7v-1.2H262.6z M262.6,79v1.2h1.7V79H262.6z
		 M265,71.6c0.4,0.9,0.7,2,0.8,2.7l-1.4,0.4c-0.1-0.7-0.4-1.9-0.7-2.8L265,71.6z M267.4,77.8v-1.2h-1.8v1.2H267.4z M267.4,80.2V79
		h-1.8v1.2H267.4z M269.6,72.3c-0.1,0.1-0.2,0.2-0.4,0.2c-0.4,0.9-1.1,2.1-1.6,2.9c0,0-1.2-0.5-1.2-0.5c0.5-0.9,1.1-2.2,1.5-3.2
		L269.6,72.3z M272.1,77.5c0.1,1.3,0.3,2.4,0.5,3.5c0.6-0.9,1-2,1.4-3l1.7,0.5c0,0.1-0.2,0.2-0.4,0.2c-0.6,1.6-1.4,3-2.3,4.3
		c0.4,1.4,0.9,2.3,1.4,2.3c0.3,0,0.5-0.9,0.6-2.7c0.3,0.3,0.8,0.7,1.1,0.9c-0.2,2.7-0.7,3.4-1.9,3.4c-1,0-1.8-1-2.3-2.5
		c-0.9,0.9-1.8,1.7-2.9,2.3c-0.2-0.3-0.7-0.8-1-1.1c1.2-0.7,2.4-1.7,3.3-2.8c-0.4-1.4-0.6-3.2-0.8-5l-1.5,0.2l-0.2-1.4l1.6-0.2
		c-0.1-1.5-0.1-3.1-0.2-4.6l1.9,0.1c0,0.2-0.1,0.2-0.4,0.3c0,1.3,0,2.7,0.1,4.1l3.7-0.5l0.2,1.4L272.1,77.5z M273.8,71.8
		c0.7,0.8,1.5,2,1.8,2.7l-1.2,0.7c-0.3-0.8-1-2-1.7-2.8L273.8,71.8z"/>
</g>
<linearGradient id="SVGID_00000137112625165652501670000016110047974900537248_" gradientUnits="userSpaceOnUse" x1="10.44" y1="79.5634" x2="184.3906" y2="79.5634">
	<stop  offset="0" style="stop-color:#FFF11D"/>
	<stop  offset="1" style="stop-color:#E96C00"/>
</linearGradient>
<polygon style="fill:url(#SVGID_00000137112625165652501670000016110047974900537248_);stroke:#FFFFFF;stroke-width:2;stroke-miterlimit:10;" points="
	10.4,104 23.8,79.6 10.4,55.2 170.3,55.2 184.4,79.6 170.3,104 "/>
<g>
	<path class="st1" d="M63.9,75.1v2.7c0,2.6-0.2,6.4-1.7,8.9c-0.3-0.3-1-0.7-1.3-0.9c1.3-2.3,1.5-5.7,1.5-8.1v-4.2h6v-2l2,0.1
		c0,0.1-0.1,0.2-0.4,0.3v1.6H76v1.5H63.9z M66.6,79.9c-0.2,1.8-0.6,4-1.4,5.3l-1.4-0.6c0.8-1.2,1.2-3.2,1.3-5L66.6,79.9z M69,84.5
		c0,0.6,0.1,0.7,0.6,0.7h1.7c0.5,0,0.6-0.4,0.7-2.7c0.3,0.3,1,0.5,1.4,0.6c-0.1,2.7-0.5,3.5-1.9,3.5h-2c-1.5,0-1.9-0.5-1.9-2v-5.8
		l1.9,0.1c0,0.1-0.1,0.2-0.4,0.3V84.5z M68.7,75.2c1.3,0.6,3.1,1.6,4,2.4l-1.1,1.1c-0.8-0.7-2.6-1.8-4-2.5L68.7,75.2z M74.8,85.3
		c-0.2-1.4-1.1-3.6-2.1-5.3l1.4-0.5c1,1.6,2,3.8,2.2,5.2L74.8,85.3z"/>
	<path class="st1" d="M93.3,81.3h-3.3c1,0.7,2.4,1.3,3.7,1.7c-0.3,0.3-0.8,0.8-1,1.2c-0.8-0.2-1.5-0.6-2.2-1
		c-0.3,3.3-0.6,3.5-2.6,3.5c-0.3,0-0.7,0-1.1,0c0-0.4-0.2-0.9-0.4-1.2c0.7,0,1.4,0.1,1.7,0.1c0.3,0,0.4,0,0.5-0.1
		c0.2-0.2,0.3-0.6,0.4-1.7h-3.4c-0.7,1.4-2,2.4-4.9,3c-0.1-0.3-0.5-0.9-0.7-1.1c2.2-0.4,3.4-1,4-1.9h-3v-0.6c-0.6,0.3-1.2,0.6-2,0.9
		c-0.2-0.3-0.6-0.9-0.9-1.1c1.4-0.4,2.5-1,3.3-1.6h-3v-1.2h4.3c0.2-0.3,0.4-0.5,0.5-0.8h-2.7v-4.5h10.5v4.5h-5.9
		c0,0.1-0.2,0.1-0.3,0.1c-0.1,0.2-0.3,0.5-0.4,0.7h8.7V81.3z M82.5,74.6v-0.7h-3.7v-1.2h3.7v-1.1l1.9,0.1c0,0.1-0.1,0.2-0.4,0.3v0.7
		h3.9v-1.1l1.9,0.1c0,0.1-0.1,0.2-0.4,0.3v0.7h3.8v1.2h-3.8v0.7h-1.5v-0.7H84v0.7H82.5z M89.5,82.6l0.2,0c-0.5-0.4-1-0.8-1.4-1.3
		h-4.6c-0.5,0.5-1,0.9-1.6,1.3h2.6c0.1-0.3,0.2-0.7,0.2-1.1l1.7,0.2c0,0.1-0.1,0.2-0.3,0.2c0,0.2-0.1,0.5-0.2,0.7H89.5z M82.2,75.7
		v0.9h7.6v-0.9H82.2z M82.2,77.5v0.9h7.6v-0.9H82.2z"/>
	<path class="st1" d="M103.9,81.4v1.3h-8.2v-1.3h1.5V75H96v-1.3h1.3v-1.9l1.8,0.1c0,0.1-0.1,0.2-0.4,0.3v1.5h2.6v-1.9l1.8,0.1
		c0,0.1-0.1,0.2-0.4,0.3v1.5h1.2V75h-1.2v6.4H103.9z M99.6,83.6c0,0.1-0.2,0.2-0.4,0.1c-0.5,1.1-1.4,2.2-2.3,3
		c-0.3-0.3-0.8-0.7-1.1-0.9c0.8-0.7,1.6-1.8,2.1-2.8L99.6,83.6z M101.3,75h-2.6v1.3h2.6V75z M98.7,77.5v1.3h2.6v-1.3H98.7z M98.7,80
		v1.4h2.6V80H98.7z M110.4,72.4V85c0,1.5-0.6,1.8-3.2,1.8c-0.1-0.4-0.3-1.1-0.5-1.5c0.5,0,1,0,1.3,0c0.8,0,0.8,0,0.8-0.3v-3.7h-3.1
		c-0.2,2-0.7,4.1-1.9,5.6c-0.2-0.3-0.9-0.7-1.2-0.9l0.1-0.2l-0.7,0.4c-0.3-0.7-1.1-1.7-1.7-2.5l1.2-0.6c0.5,0.6,1.2,1.5,1.6,2.1
		c1.1-2.1,1.2-4.7,1.2-6.8v-6H110.4z M106,78.3c0,0.5,0,1,0,1.5h3v-2.4H106V78.3z M108.9,73.7H106v2.3h2.9V73.7z"/>
	<path class="st1" d="M120.1,78h-4.6v8.7H114V72.2h6.1V78z M118.6,73.4h-3.1v1.1h3.1V73.4z M115.5,76.9h3.1v-1.2h-3.1V76.9z
		 M127.6,72.2v12.6c0,1.8-0.8,1.9-3.6,1.9c-0.1-0.4-0.3-1.1-0.5-1.5H119V86h-1.4v-6.9h6.2v6c0.4,0,0.8,0,1.1,0c1.1,0,1.1,0,1.1-0.4
		V78h-4.7v-5.8H127.6z M122.4,80.3H119v1.3h3.3V80.3z M119,84h3.3v-1.4H119V84z M126.1,73.4h-3.2v1.1h3.2V73.4z M122.8,76.9h3.2
		v-1.3h-3.2V76.9z"/>
</g>
<g>
	<g>
		<line class="st4" x1="327.1" y1="55.2" x2="327.5" y2="55.8"/>
		<line class="st5" x1="328.1" y1="56.9" x2="340.5" y2="78.4"/>
		<polyline class="st4" points="340.8,78.9 341.2,79.6 340.8,80.2 		"/>
		<line class="st6" x1="340.3" y1="81.2" x2="327.8" y2="103"/>
		<line class="st4" x1="327.5" y1="103.5" x2="327.1" y2="104.1"/>
	</g>
</g>
<g>
	<path class="st1" d="M393.7,85.3H384c0.1-1,0.4-1.8,1-2.7c0.6-0.8,1.6-1.8,3.2-3c0.9-0.7,1.5-1.2,1.8-1.6c0.3-0.4,0.4-0.7,0.4-1
		c0-0.4-0.1-0.7-0.4-0.9c-0.3-0.2-0.6-0.4-1-0.4c-0.4,0-0.7,0.1-1,0.4c-0.3,0.3-0.4,0.7-0.5,1.4l-3.2-0.3c0.1-0.9,0.4-1.6,0.7-2.1
		c0.3-0.5,0.8-0.9,1.4-1.2c0.6-0.3,1.5-0.4,2.5-0.4c1.1,0,2,0.1,2.6,0.4c0.6,0.3,1.1,0.7,1.5,1.2c0.4,0.5,0.5,1.1,0.5,1.8
		c0,0.7-0.2,1.4-0.6,2c-0.4,0.6-1.2,1.3-2.3,2.1c-0.6,0.4-1.1,0.8-1.3,0.9c-0.2,0.2-0.5,0.4-0.8,0.7h5V85.3z"/>
	<path class="st1" d="M399,72.5h13.6v14.1h-1.6v-1.1h-10.4v1.1H399V72.5z M400.5,84h10.4v-10h-10.4V84z M402.6,76.2h6.2v5.5h-6.2
		V76.2z M407.3,80.5v-3H404v3H407.3z"/>
	<path class="st1" d="M426.1,84h-3.5v2.8h-1.5V84h-3.6v-1.4h3.6v-1.2h-2.9v-5.9h7.5v5.9h-3.1v1.2h3.5V84z M418.8,72
		c0.5,0.8,1,1.9,1.2,2.7l-1.3,0.5c-0.1-0.7-0.6-1.9-1.1-2.7L418.8,72z M419.5,76.6v1.2h1.7v-1.2H419.5z M419.5,79v1.2h1.7V79H419.5z
		 M421.8,71.6c0.4,0.9,0.7,2,0.8,2.7l-1.4,0.4c-0.1-0.7-0.4-1.9-0.7-2.8L421.8,71.6z M424.3,77.8v-1.2h-1.8v1.2H424.3z M424.3,80.2
		V79h-1.8v1.2H424.3z M426.5,72.3c-0.1,0.1-0.2,0.2-0.4,0.2c-0.4,0.9-1.1,2.1-1.6,2.9c0,0-1.2-0.5-1.2-0.5c0.5-0.9,1.1-2.2,1.5-3.2
		L426.5,72.3z M429,77.5c0.1,1.3,0.3,2.4,0.5,3.5c0.6-0.9,1-2,1.4-3l1.7,0.5c0,0.1-0.2,0.2-0.4,0.2c-0.6,1.6-1.4,3-2.3,4.3
		c0.4,1.4,0.9,2.3,1.4,2.3c0.3,0,0.5-0.9,0.6-2.7c0.3,0.3,0.8,0.7,1.1,0.9c-0.2,2.7-0.7,3.4-1.9,3.4c-1,0-1.8-1-2.3-2.5
		c-0.9,0.9-1.8,1.7-2.9,2.3c-0.2-0.3-0.7-0.8-1-1.1c1.2-0.7,2.4-1.7,3.3-2.8c-0.4-1.4-0.6-3.2-0.8-5l-1.5,0.2l-0.2-1.4l1.6-0.2
		c-0.1-1.5-0.1-3.1-0.2-4.6l1.9,0.1c0,0.2-0.1,0.2-0.4,0.3c0,1.3,0,2.7,0.1,4.1l3.7-0.5l0.2,1.4L429,77.5z M430.7,71.8
		c0.7,0.8,1.5,2,1.8,2.7l-1.2,0.7c-0.3-0.8-1-2-1.7-2.8L430.7,71.8z"/>
</g>
<g>
	
		<linearGradient id="SVGID_00000035520204261649243150000011109453879621444228_" gradientUnits="userSpaceOnUse" x1="713.359" y1="80.5714" x2="843.8222" y2="80.5714">
		<stop  offset="0" style="stop-color:#EBEBEB"/>
		<stop  offset="5.379478e-02" style="stop-color:#E8E8E8"/>
		<stop  offset="9.595351e-02" style="stop-color:#DEDEDE"/>
		<stop  offset="0.1342" style="stop-color:#CECECD"/>
		<stop  offset="0.1701" style="stop-color:#B7B6B6"/>
		<stop  offset="0.2043" style="stop-color:#9A9898"/>
		<stop  offset="0.2374" style="stop-color:#767372"/>
		<stop  offset="0.2689" style="stop-color:#4C4847"/>
		<stop  offset="0.2781" style="stop-color:#3E3A39"/>
		<stop  offset="0.3009" style="stop-color:#555252"/>
		<stop  offset="0.3352" style="stop-color:#727070"/>
		<stop  offset="0.3713" style="stop-color:#898788"/>
		<stop  offset="0.4095" style="stop-color:#999899"/>
		<stop  offset="0.4513" style="stop-color:#A2A2A3"/>
		<stop  offset="0.5033" style="stop-color:#A5A5A6"/>
		<stop  offset="0.5759" style="stop-color:#AAAAAA"/>
		<stop  offset="0.656" style="stop-color:#B7B7B8"/>
		<stop  offset="0.7396" style="stop-color:#CDCDCD"/>
		<stop  offset="0.8252" style="stop-color:#EBEBEC"/>
		<stop  offset="0.8709" style="stop-color:#FFFFFF"/>
		<stop  offset="1" style="stop-color:#939494"/>
	</linearGradient>
	<path style="fill-rule:evenodd;clip-rule:evenodd;fill:url(#SVGID_00000035520204261649243150000011109453879621444228_);" d="
		M777.9,108.6c3.2,15.6,13.4,23.3,27.5,27.1c0,4.2,0,8.2,0,12.6c-24.2,0-48.3,0-72.5,0c-0.1-1.2-0.2-2.2-0.4-3.2
		c-0.8-6.1,0.4-9.9,7.5-12.2c11.1-3.5,17.7-12,20.2-24.1c-16.1-5.7-26.3-17.7-33.8-32.4c-9.5-18.7-11.9-38.6-10.2-59.2
		c0.1-1.5,2.7-4.1,4.2-4.1c32.4-0.2,64.8-0.2,97.2,0c1.5,0,4.2,2.1,4.3,3.4c2.2,26.4-2.2,51.3-18.3,73.1
		C797.1,98.3,788.9,104.9,777.9,108.6z"/>
	
		<linearGradient id="SVGID_00000098194479408228523370000002933841325544439441_" gradientUnits="userSpaceOnUse" x1="713.3605" y1="47.7353" x2="843.822" y2="47.7353">
		<stop  offset="0" style="stop-color:#EBEBEB"/>
		<stop  offset="5.379478e-02" style="stop-color:#E8E8E8"/>
		<stop  offset="9.595351e-02" style="stop-color:#DEDEDE"/>
		<stop  offset="0.1342" style="stop-color:#CECECD"/>
		<stop  offset="0.1701" style="stop-color:#B7B6B6"/>
		<stop  offset="0.2043" style="stop-color:#9A9898"/>
		<stop  offset="0.2374" style="stop-color:#767372"/>
		<stop  offset="0.2689" style="stop-color:#4C4847"/>
		<stop  offset="0.2781" style="stop-color:#3E3A39"/>
		<stop  offset="0.3009" style="stop-color:#555252"/>
		<stop  offset="0.3352" style="stop-color:#727070"/>
		<stop  offset="0.3713" style="stop-color:#898788"/>
		<stop  offset="0.4095" style="stop-color:#999899"/>
		<stop  offset="0.4513" style="stop-color:#A2A2A3"/>
		<stop  offset="0.5033" style="stop-color:#A5A5A6"/>
		<stop  offset="0.5759" style="stop-color:#AAAAAA"/>
		<stop  offset="0.656" style="stop-color:#B7B7B8"/>
		<stop  offset="0.7396" style="stop-color:#CDCDCD"/>
		<stop  offset="0.8252" style="stop-color:#EBEBEC"/>
		<stop  offset="0.8709" style="stop-color:#FFFFFF"/>
		<stop  offset="1" style="stop-color:#939494"/>
	</linearGradient>
	<path style="fill-rule:evenodd;clip-rule:evenodd;fill:url(#SVGID_00000098194479408228523370000002933841325544439441_);" d="
		M708.5,17.2c0,4.3,0,7.9,0,12.2c-3.6-0.8-6.7-1.7-10-2.3c-8.8-1.8-12.7,1.8-11.3,10.7c1.8,11.7,8.8,20.2,19.1,24.8
		c8.5,3.8,11.2,10.4,13.8,17.9c-19.8-1.7-40.5-19.6-44.2-38.1c-4-19.9,6.2-30.5,26-26.8C704,16,706.1,16.7,708.5,17.2z"/>
	
		<linearGradient id="SVGID_00000057838359313143376370000007401805920202201746_" gradientUnits="userSpaceOnUse" x1="713.3618" y1="48.1203" x2="843.821" y2="48.1203">
		<stop  offset="0" style="stop-color:#EBEBEB"/>
		<stop  offset="5.379478e-02" style="stop-color:#E8E8E8"/>
		<stop  offset="9.595351e-02" style="stop-color:#DEDEDE"/>
		<stop  offset="0.1342" style="stop-color:#CECECD"/>
		<stop  offset="0.1701" style="stop-color:#B7B6B6"/>
		<stop  offset="0.2043" style="stop-color:#9A9898"/>
		<stop  offset="0.2374" style="stop-color:#767372"/>
		<stop  offset="0.2689" style="stop-color:#4C4847"/>
		<stop  offset="0.2781" style="stop-color:#3E3A39"/>
		<stop  offset="0.3009" style="stop-color:#555252"/>
		<stop  offset="0.3352" style="stop-color:#727070"/>
		<stop  offset="0.3713" style="stop-color:#898788"/>
		<stop  offset="0.4095" style="stop-color:#999899"/>
		<stop  offset="0.4513" style="stop-color:#A2A2A3"/>
		<stop  offset="0.5033" style="stop-color:#A5A5A6"/>
		<stop  offset="0.5759" style="stop-color:#AAAAAA"/>
		<stop  offset="0.656" style="stop-color:#B7B7B8"/>
		<stop  offset="0.7396" style="stop-color:#CDCDCD"/>
		<stop  offset="0.8252" style="stop-color:#EBEBEC"/>
		<stop  offset="0.8709" style="stop-color:#FFFFFF"/>
		<stop  offset="1" style="stop-color:#939494"/>
	</linearGradient>
	<path style="fill-rule:evenodd;clip-rule:evenodd;fill:url(#SVGID_00000057838359313143376370000007401805920202201746_);" d="
		M829.7,29.5c0-4.3,0-7.9,0-13c5.8-0.5,11.9-2,17.8-1.4c9.7,0.9,15.2,7.9,15.7,18.2c0.4,8.9-2.2,17.1-7.4,24.3
		c-9.3,12.8-22.2,19.8-38.2,23.6c3.5-7.9,5.6-14.9,14.2-18.5c9.9-4.2,16.7-12.4,19-23.5c2.1-10.2-1.9-14.1-12-11.9
		C836,28,833.3,28.6,829.7,29.5z"/>
</g>
<g>
	<path class="st10" d="M777.9,108.6c3.2,15.6,13.4,23.3,27.5,27.1c0,4.2,0,8.2,0,12.6c-24.2,0-48.3,0-72.5,0
		c-0.1-1.2-0.2-2.2-0.4-3.2c-0.8-6.1,0.4-9.9,7.5-12.2c11.1-3.5,17.7-12,20.2-24.1c-16.1-5.7-26.3-17.7-33.8-32.4
		c-9.5-18.7-11.9-38.6-10.2-59.2c0.1-1.5,2.7-4.1,4.2-4.1c32.4-0.2,64.8-0.2,97.2,0c1.5,0,4.2,2.1,4.3,3.4
		c2.2,26.4-2.2,51.3-18.3,73.1C797.1,98.3,788.9,104.9,777.9,108.6z"/>
	<path class="st10" d="M708.5,17.2c0,4.3,0,7.9,0,12.2c-3.6-0.8-6.7-1.7-10-2.3c-8.8-1.8-12.7,1.8-11.3,10.7
		c1.8,11.7,8.8,20.2,19.1,24.8c8.5,3.8,11.2,10.4,13.8,17.9c-19.8-1.7-40.5-19.6-44.2-38.1c-4-19.9,6.2-30.5,26-26.8
		C704,16,706.1,16.7,708.5,17.2z"/>
	<path class="st10" d="M829.7,29.5c0-4.3,0-7.9,0-13c5.8-0.5,11.9-2,17.8-1.4c9.7,0.9,15.2,7.9,15.7,18.2c0.4,8.9-2.2,17.1-7.4,24.3
		c-9.3,12.8-22.2,19.8-38.2,23.6c3.5-7.9,5.6-14.9,14.2-18.5c9.9-4.2,16.7-12.4,19-23.5c2.1-10.2-1.9-14.1-12-11.9
		C836,28,833.3,28.6,829.7,29.5z"/>
</g>
<g>
	<g>
		<polygon class="st1" points="748.7,43.9 748.7,43.9 743.7,41 754.3,34.9 754.3,44.8 762,49.2 762,47.3 762,47.3 762,21.6 
			728.3,41.1 797.1,80.4 804.7,76 		"/>
	</g>
	<g>
		<polygon class="st1" points="754.3,71.4 754.3,71.4 754.3,72.8 743.7,66.6 752.3,61.7 752.3,57.1 748.6,55 728.3,66.6 762,86 
			762,62.6 754.3,58.3 		"/>
	</g>
	<g>
		<polygon class="st1" points="804.6,31.7 796.9,27.3 764,46.2 764,50.3 768.1,52.7 		"/>
	</g>
</g>
</svg>
