<?xml version="1.0" encoding="utf-8"?>
<!-- Generator: Adobe Illustrator 26.2.1, SVG Export Plug-In . SVG Version: 6.00 Build 0)  -->
<svg version="1.1" id="Layer_1" xmlns="http://www.w3.org/2000/svg" xmlns:xlink="http://www.w3.org/1999/xlink" x="0px" y="0px"
	 viewBox="0 0 900 500" style="enable-background:new 0 0 900 500;" xml:space="preserve">
<style type="text/css">
	.st0{fill:#FFFFFF;}
	.st1{fill:#FFFFFF;stroke:#4D4D4D;stroke-width:0.9139;}
	.st2{fill:#FFFFFF;stroke:#4D4D4D;stroke-width:0.9128;}
	.st3{fill:#FFFFFF;stroke:#4D4D4D;stroke-width:0.3656;stroke-linecap:round;stroke-linejoin:round;}
</style>
<g id="layer1">
	<g id="g4284">
		<g id="g4263">
			<path id="rect4090-8" class="st0" d="M179.1,0.9h437.3c27.8,0,50.3,22.5,50.3,50.3v295.1c0,27.8-22.5,50.3-50.3,50.3H179.1
				c-27.8,0-50.3-22.5-50.3-50.3V51.2C128.8,23.4,151.3,0.9,179.1,0.9z"/>
			<path id="rect4090" class="st0" d="M184.5,10h425.7c26.4,0,47.8,21.4,47.8,47.8v280.4c0,26.4-21.4,47.8-47.8,47.8H184.5
				c-26.4,0-47.8-21.4-47.8-47.8V57.8C136.7,31.4,158.2,10,184.5,10z"/>
			<path id="rect4088" class="st1" d="M183.1,32.1h427c13,0,23.5,10.5,23.5,23.5v248.3c0,13-10.5,23.5-23.5,23.5h-427
				c-13,0-23.5-10.5-23.5-23.5V55.6C159.6,42.7,170.1,32.1,183.1,32.1z"/>
			<path id="path4092" class="st0" d="M397.5,344.8c6.5,0,11.8,5.3,11.8,11.9c0,6.5-5.3,11.8-11.9,11.8c-6.5,0-11.8-5.3-11.8-11.9
				c0-6.3,5-11.5,11.3-11.8"/>
			<path id="rect4112" class="st0" d="M357.3,405.6c-5.4,0-9.7,4.3-9.7,9.7v42.4h-36.1c-6.5,0-11.7,5.3-11.7,11.8v5
				c0,6.5,5.2,11.7,11.7,11.7h171.2c6.5,0,11.7-5.2,11.7-11.7v-5c0-6.5-5.2-11.8-11.7-11.8h-35.6v-42.4c0-5.4-4.3-9.7-9.6-9.7H357.3
				L357.3,405.6z"/>
		</g>
		<g id="g4276">
			<path id="rect4172-5" class="st0" d="M639.5,148.5H838c17.2,0,31.2,14,31.2,31.2v287.6c0,17.2-14,31.2-31.2,31.2H639.5
				c-17.2,0-31.2-14-31.2-31.2V179.8C608.3,162.5,622.3,148.5,639.5,148.5z"/>
			<path id="rect4172" class="st0" d="M649.2,161.9h179.1c16,0,29,13,29,29v266.8c0,16-13,29-29,29H649.2c-16,0-29-13-29-29V190.9
				C620.3,174.9,633.2,161.9,649.2,161.9z"/>
			<rect id="rect4124" x="641.1" y="186.3" class="st2" width="194.1" height="257.1"/>
			<path id="path4126" class="st0" d="M738.1,456c5.2,0,9.5,4.2,9.5,9.5c0,5.2-4.2,9.5-9.5,9.5c-5.2,0-9.5-4.2-9.5-9.5
				c0-5.1,4-9.3,9-9.5"/>
			<path id="path4126-2" class="st0" d="M700.2,456c5.2,0,9.5,4.2,9.5,9.5c0,5.2-4.2,9.5-9.5,9.5c-5.2,0-9.5-4.2-9.5-9.5
				c0-5.1,4-9.3,9-9.5"/>
			<path id="path4126-4" class="st0" d="M774.8,456c5.2,0,9.5,4.2,9.5,9.5c0,5.2-4.2,9.5-9.5,9.5c-5.2,0-9.5-4.2-9.5-9.5
				c0-5.1,4-9.3,9-9.5"/>
		</g>
		<g id="g4245">
			<path id="rect3861-8" class="st0" d="M65.5,253.1h85.8c21.3,0,38.5,17.2,38.5,38.5v166.9c0,21.3-17.2,38.5-38.5,38.5H65.5
				c-21.3,0-38.5-17.2-38.5-38.5V291.6C27,270.4,44.2,253.1,65.5,253.1z"/>
			<path id="rect3861" class="st0" d="M72.2,263.2h71.9c19.4,0,35.2,15.7,35.2,35.2v152.4c0,19.4-15.7,35.2-35.2,35.2H72.2
				c-19.4,0-35.2-15.7-35.2-35.2V298.3C37,278.9,52.8,263.2,72.2,263.2z"/>
			<rect id="rect3774" x="51.3" y="294.2" class="st1" width="113.8" height="161.1"/>
			<rect id="rect3776" x="84.4" y="277.5" class="st3" width="47.4" height="4.7"/>
			<path id="path3859" class="st0" d="M108.2,460.9c5.2,0,9.5,4.2,9.5,9.5c0,5.2-4.2,9.5-9.5,9.5c-5.2,0-9.5-4.2-9.5-9.5
				c0-5.1,4-9.2,9-9.5"/>
		</g>
	</g>
</g>
</svg>
